# xmcd
#
# Track frame offsets:
#	150
#	19379
#	35728
#	56566
#	70275
#	89354
#	109081
#	125146
#	150956
#	164921
#	184880
#	206725
#	228220
#	250152
#	274249
#
# Disc length: 3952 seconds
#
# Revision: 1
# Processed by: cddbd v1.5.2PL0 Copyright (c) Steve Scherf et al.
# Submitted via: audiograbber 1.83.01
#
DISCID=dd0f6e0f
DTITLE=Mark Knopfler and Emmylou Harris - All the Roadrunning
DYEAR=2006
DGENRE=Country Rock
TTITLE0=Beachcombing
TTITLE1=I Dug Up a Diamond
TTITLE2=This Is Us
TTITLE3=Red Staggerwing
TTITLE4=Rollin' On
TTITLE5=Love and Happiness for You
TTITLE6=Right Now
TTITLE7=Donkey Town
TTITLE8=Belle Starr
TTITLE9=Beyond My Wildest Dreams
TTITLE10=All the Roadrunning
TTITLE11=If This Is Goodbye
TTITLE12=Right Now (Live) (Bonus Track)
TTITLE13=This Is Us (Live) (Bonus Track)
TTITLE14=If This Is Goodbye (Live) (Bonus Track)
EXTD=
EXTT0=
EXTT1=
EXTT2=
EXTT3=
EXTT4=
EXTT5=
EXTT6=
EXTT7=
EXTT8=
EXTT9=
EXTT10=
EXTT11=
EXTT12=
EXTT13=
EXTT14=
PLAYORDER=
